<?xml version="1.0" encoding="utf-8"?>
<!-- Generator: Adobe Illustrator 18.0.0, SVG Export Plug-In . SVG Version: 6.00 Build 0)  -->
<!DOCTYPE svg PUBLIC "-//W3C//DTD SVG 1.1//EN" "http://www.w3.org/Graphics/SVG/1.1/DTD/svg11.dtd">
<svg version="1.1" id="Layer_1" xmlns="http://www.w3.org/2000/svg" xmlns:xlink="http://www.w3.org/1999/xlink" x="0px" y="0px"
	 viewBox="0 0 1024 1024" enable-background="new 0 0 1024 1024" xml:space="preserve">
<rect fill="#FFFFFF" stroke="#231F20" stroke-miterlimit="10" width="1024" height="1024"/>
<g>
	<path fill="#AE0000" d="M692,785.8v63.7c0,27.9-22.6,50.6-50.6,50.6H382.1c-27.9,0-50.6-22.7-50.6-50.6v-64.1
		c51.7,34.4,113.7,54.3,180.5,54.3C578.5,839.8,640.4,820,692,785.8z"/>
	<path fill="#0399FF" d="M512,210c-167.4,0-303,135.6-303,303s135.6,303,303,303s303-135.6,303-303S679.4,210,512,210z M512,752.2
		c-132.1,0-239.2-107.1-239.2-239.2S379.9,273.8,512,273.8c132.1,0,239.2,107.1,239.2,239.2S644.1,752.2,512,752.2z"/>
	<path fill="#00A651" d="M512,291.3c-122.4,0-221.7,99.2-221.7,221.7c0,122.4,99.2,221.7,221.7,221.7
		c122.4,0,221.7-99.2,221.7-221.7C733.7,390.6,634.4,291.3,512,291.3z M691.9,396.4l11.3,19.5L672,429.7l-7.5-13.1L691.9,396.4z
		 M609.5,322.1l19.5,11.3l-20.1,27.5l-13.1-7.6L609.5,322.1z M523,298.9l-3.7,33.8h-15.1l-3.8-33.8H523z M414.5,322.1l13.8,31.1
		l-13.1,7.6L395,333.4L414.5,322.1z M332.1,396.4l27.5,20.1l-7.5,13.1l-31.2-13.6L332.1,396.4z M297.9,502l33.8,3.7v15.1l-33.8,3.8
		V502z M332.4,630l-11.3-19.5l31.1-13.8l7.6,13.1L332.4,630z M415,704.1l-19.5-11.3l20.1-27.5l13.1,7.5L415,704.1z M500.4,727
		l3.7-33.8h15.1L523,727H500.4z M609,704.1L595.3,673l13.1-7.5l20.2,27.4L609,704.1z M512,687.2c-96.2,0-174.2-78-174.2-174.2
		s78-174.2,174.2-174.2c96.2,0,174.3,78,174.3,174.2S608.2,687.2,512,687.2z M691.6,630l-27.5-20.1l7.6-13.1l31.2,13.6L691.6,630z
		 M692.2,520.9v-15.1l33.8-3.8v22.6L692.2,520.9z"/>
	<path fill="#AE0000" d="M512,291.3c-122.4,0-221.7,99.2-221.7,221.7c0,122.4,99.2,221.7,221.7,221.7
		c122.4,0,221.7-99.2,221.7-221.7C733.7,390.6,634.4,291.3,512,291.3z M691.9,396.4l11.3,19.5L672,429.7l-7.5-13.1L691.9,396.4z
		 M609.5,322.1l19.5,11.3l-20.1,27.5l-13.1-7.6L609.5,322.1z M523,298.9l-3.7,33.8h-15.1l-3.8-33.8H523z M414.5,322.1l13.8,31.1
		l-13.1,7.6L395,333.4L414.5,322.1z M332.1,396.4l27.5,20.1l-7.5,13.1l-31.2-13.6L332.1,396.4z M297.9,502l33.8,3.7v15.1l-33.8,3.8
		V502z M332.4,630l-11.3-19.5l31.1-13.8l7.6,13.1L332.4,630z M415,704.1l-19.5-11.3l20.1-27.5l13.1,7.5L415,704.1z M500.4,727
		l3.7-33.8h15.1L523,727H500.4z M609,704.1L595.3,673l13.1-7.5l20.2,27.4L609,704.1z M512,687.2c-96.2,0-174.2-78-174.2-174.2
		s78-174.2,174.2-174.2c96.2,0,174.3,78,174.3,174.2S608.2,687.2,512,687.2z M691.6,630l-27.5-20.1l7.6-13.1l31.2,13.6L691.6,630z
		 M692.2,520.9v-15.1l33.8-3.8v22.6L692.2,520.9z"/>
	<path fill="#0399FF" d="M660.9,433.7L531,524.6c-3.9,6.4-10.9,10.7-19,10.7c-10.7,0-19.6-7.5-21.8-17.6l-105.6-77.2L512,490.7
		L660.9,433.7z"/>
	<path fill="#AE0000" d="M692.2,174.5v65.9c-51.7-34.2-113.6-54.2-180.2-54.2c-66.6,0-128.5,19.9-180.2,54.2v-65.9
		c0-27.9,22.6-50.6,50.6-50.6h259.3C669.6,123.9,692.2,146.6,692.2,174.5z"/>
</g>
</svg>
