<?xml version="1.0" encoding="utf-8"?>
<!-- Generator: Adobe Illustrator 18.0.0, SVG Export Plug-In . SVG Version: 6.00 Build 0)  -->
<!DOCTYPE svg PUBLIC "-//W3C//DTD SVG 1.1//EN" "http://www.w3.org/Graphics/SVG/1.1/DTD/svg11.dtd">
<svg version="1.1" id="Layer_1" xmlns="http://www.w3.org/2000/svg" xmlns:xlink="http://www.w3.org/1999/xlink" x="0px" y="0px"
	 viewBox="0 0 1024 1024" enable-background="new 0 0 1024 1024" xml:space="preserve">
<rect stroke="#231F20" stroke-miterlimit="10" width="1024" height="1024"/>
<g>
	<path fill="#B50102" d="M533.5,774.7C377.9,788,140.8,624.9,218,349.3C114.4,491.6,212.8,837.9,533.5,774.7z"/>
	<path fill="#B50102" d="M297.5,658c-88.7-128.5-64.8-415.3,212.9-485C335.4,153.6,83.5,410.8,297.5,658z"/>
	<path fill="#B50102" d="M275.8,400.7c64.9-142.1,323.4-268.5,525.6-65.8C728.4,174.7,378.4,90.3,275.8,400.7z"/>
	<path fill="#B50102" d="M486.7,249c155.4-15.3,394.7,144.6,321.1,421.2C909.5,526.5,806.5,181.6,486.7,249z"/>
	<path fill="#B50102" d="M724.7,362.3c91.3,126.7,73,413.9-203.2,489.1C696.8,867.3,943.5,605.1,724.7,362.3z"/>
	<path fill="#B50102" d="M752.3,618.2c-62.1,143.3-318.1,274.7-524.2,76C304.3,852.9,655.8,930.5,752.3,618.2z"/>
	<path fill="#B50102" d="M290.5,503.3c0,3.9-1.6,7.4-4.1,9.9c-2.6,2.6-6.1,4.1-10,4.1h-39.2v-28.2h39.2
		C284.2,489.2,290.5,495.5,290.5,503.3z"/>
	<path fill="#B50102" d="M499.1,278.1c-3.9,0-7.4-1.6-9.9-4.1c-2.6-2.6-4.1-6.1-4.1-10v-39.2h28.2V264
		C513.2,271.8,506.9,278.1,499.1,278.1z"/>
	<path fill="#B50102" d="M733,501.2c0-3.9,1.6-7.4,4.1-9.9c2.6-2.6,6.1-4.1,10-4.1h39.2v28.2h-39.2C739.4,515.3,733,509,733,501.2z"
		/>
	<path fill="#B50102" d="M499.6,725.5c3.9,0,7.4,1.6,9.9,4.1c2.6,2.6,4.1,6.1,4.1,10v39.2h-28.2v-39.2
		C485.5,731.9,491.9,725.5,499.6,725.5z"/>
	<path fill="#0399FF" d="M362.9,412.5l136.2,62.2l193.2-87L518.2,528.6c-11.4,9.2-28,8.5-38.5-1.8L362.9,412.5z"/>
</g>
</svg>
