<?xml version="1.0" encoding="utf-8"?>
<!-- Generator: Adobe Illustrator 18.0.0, SVG Export Plug-In . SVG Version: 6.00 Build 0)  -->
<!DOCTYPE svg PUBLIC "-//W3C//DTD SVG 1.1//EN" "http://www.w3.org/Graphics/SVG/1.1/DTD/svg11.dtd">
<svg version="1.1" id="Layer_1" xmlns="http://www.w3.org/2000/svg" xmlns:xlink="http://www.w3.org/1999/xlink" x="0px" y="0px"
	 viewBox="0 0 1024 1024" enable-background="new 0 0 1024 1024" xml:space="preserve">
<rect stroke="#231F20" stroke-miterlimit="10" width="1024" height="1024"/>
<g>
	<path fill="#B20209" d="M485.3,509.3c2.9-11.2,13-19.4,25-19.4c1.2,0,2.3,0.1,3.4,0.3L401.7,382.1l-24.5,24.5l104.2,104.1
		l-35.9,12.3l14,32.1l43.4-14.5c-10.7-3.1-18.5-13-18.5-24.7c0-0.6,0-1.3,0.1-2C484.6,512.3,484.8,510.8,485.3,509.3z M692.3,477.4
		L680,443l-153.9,52.4c5,3.9,8.5,9.6,9.6,16.1c0.2,1.4,0.3,2.8,0.3,4.3c0,5.8-1.9,11.1-5.1,15.4c-4.3,5.9-11.1,9.8-18.8,10.4
		l31.3,31.2l26.7-28L549.7,525L692.3,477.4z M692.3,477.4L680,443l-153.9,52.4c5,3.9,8.5,9.6,9.6,16.1c0.2,1.4,0.3,2.8,0.3,4.3
		c0,5.8-1.9,11.1-5.1,15.4c-4.3,5.9-11.1,9.8-18.8,10.4l31.3,31.2l26.7-28L549.7,525L692.3,477.4z M485.3,509.3
		c2.9-11.2,13-19.4,25-19.4c1.2,0,2.3,0.1,3.4,0.3L401.7,382.1l-24.5,24.5l104.2,104.1l-35.9,12.3l14,32.1l43.4-14.5
		c-10.7-3.1-18.5-13-18.5-24.7c0-0.6,0-1.3,0.1-2C484.6,512.3,484.8,510.8,485.3,509.3z M485.3,509.3c2.9-11.2,13-19.4,25-19.4
		c1.2,0,2.3,0.1,3.4,0.3L401.7,382.1l-24.5,24.5l104.2,104.1l-35.9,12.3l14,32.1l43.4-14.5c-10.7-3.1-18.5-13-18.5-24.7
		c0-0.6,0-1.3,0.1-2C484.6,512.3,484.8,510.8,485.3,509.3z M692.3,477.4L680,443l-153.9,52.4c5,3.9,8.5,9.6,9.6,16.1
		c0.2,1.4,0.3,2.8,0.3,4.3c0,5.8-1.9,11.1-5.1,15.4c-4.3,5.9-11.1,9.8-18.8,10.4l31.3,31.2l26.7-28L549.7,525L692.3,477.4z
		 M692.3,477.4L680,443l-153.9,52.4c5,3.9,8.5,9.6,9.6,16.1c0.2,1.4,0.3,2.8,0.3,4.3c0,5.8-1.9,11.1-5.1,15.4
		c-4.3,5.9-11.1,9.8-18.8,10.4l31.3,31.2l26.7-28L549.7,525L692.3,477.4z M485.3,509.3c2.9-11.2,13-19.4,25-19.4
		c1.2,0,2.3,0.1,3.4,0.3L401.7,382.1l-24.5,24.5l104.2,104.1l-35.9,12.3l14,32.1l43.4-14.5c-10.7-3.1-18.5-13-18.5-24.7
		c0-0.6,0-1.3,0.1-2C484.6,512.3,484.8,510.8,485.3,509.3z M666.9,168.5H357.1c-103.5,0-187.4,83.8-187.4,187.2v312.5
		c0,103.4,83.9,187.3,187.4,187.3h309.7c103.5,0,187.4-83.9,187.4-187.3V355.7C854.2,252.3,770.3,168.5,666.9,168.5z M810.4,671.7
		c0,76.9-62.2,139.1-139.1,139.1H353.6c-76.9,0-139.2-62.2-139.2-139.1V354.1c0-76.9,62.3-139.2,139.2-139.2h317.6
		c76.9,0,139.1,62.3,139.1,139.2V671.7z M526.1,495.4c5,3.9,8.5,9.6,9.6,16.1c0.2,1.4,0.3,2.8,0.3,4.3c0,5.8-1.9,11.1-5.1,15.4
		c-4.3,5.9-11.1,9.8-18.8,10.4l31.3,31.2l26.7-28L549.7,525l142.6-47.5L680,443L526.1,495.4z M485.3,509.3c2.9-11.2,13-19.4,25-19.4
		c1.2,0,2.3,0.1,3.4,0.3L401.7,382.1l-24.5,24.5l104.2,104.1l-35.9,12.3l14,32.1l43.4-14.5c-10.7-3.1-18.5-13-18.5-24.7
		c0-0.6,0-1.3,0.1-2C484.6,512.3,484.8,510.8,485.3,509.3z M485.3,509.3c2.9-11.2,13-19.4,25-19.4c1.2,0,2.3,0.1,3.4,0.3
		L401.7,382.1l-24.5,24.5l104.2,104.1l-35.9,12.3l14,32.1l43.4-14.5c-10.7-3.1-18.5-13-18.5-24.7c0-0.6,0-1.3,0.1-2
		C484.6,512.3,484.8,510.8,485.3,509.3z M692.3,477.4L680,443l-153.9,52.4c5,3.9,8.5,9.6,9.6,16.1c0.2,1.4,0.3,2.8,0.3,4.3
		c0,5.8-1.9,11.1-5.1,15.4c-4.3,5.9-11.1,9.8-18.8,10.4l31.3,31.2l26.7-28L549.7,525L692.3,477.4z M485.3,509.3
		c2.9-11.2,13-19.4,25-19.4c1.2,0,2.3,0.1,3.4,0.3L401.7,382.1l-24.5,24.5l104.2,104.1l-35.9,12.3l14,32.1l43.4-14.5
		c-10.7-3.1-18.5-13-18.5-24.7c0-0.6,0-1.3,0.1-2C484.6,512.3,484.8,510.8,485.3,509.3z M692.3,477.4L680,443l-153.9,52.4
		c5,3.9,8.5,9.6,9.6,16.1c0.2,1.4,0.3,2.8,0.3,4.3c0,5.8-1.9,11.1-5.1,15.4c-4.3,5.9-11.1,9.8-18.8,10.4l31.3,31.2l26.7-28
		L549.7,525L692.3,477.4z M485.3,509.3c2.9-11.2,13-19.4,25-19.4c1.2,0,2.3,0.1,3.4,0.3L401.7,382.1l-24.5,24.5l104.2,104.1
		l-35.9,12.3l14,32.1l43.4-14.5c-10.7-3.1-18.5-13-18.5-24.7c0-0.6,0-1.3,0.1-2C484.6,512.3,484.8,510.8,485.3,509.3z M692.3,477.4
		L680,443l-153.9,52.4c5,3.9,8.5,9.6,9.6,16.1c0.2,1.4,0.3,2.8,0.3,4.3c0,5.8-1.9,11.1-5.1,15.4c-4.3,5.9-11.1,9.8-18.8,10.4
		l31.3,31.2l26.7-28L549.7,525L692.3,477.4z M692.3,477.4L680,443l-153.9,52.4c5,3.9,8.5,9.6,9.6,16.1c0.2,1.4,0.3,2.8,0.3,4.3
		c0,5.8-1.9,11.1-5.1,15.4c-4.3,5.9-11.1,9.8-18.8,10.4l31.3,31.2l26.7-28L549.7,525L692.3,477.4z M485.3,509.3
		c2.9-11.2,13-19.4,25-19.4c1.2,0,2.3,0.1,3.4,0.3L401.7,382.1l-24.5,24.5l104.2,104.1l-35.9,12.3l14,32.1l43.4-14.5
		c-10.7-3.1-18.5-13-18.5-24.7c0-0.6,0-1.3,0.1-2C484.6,512.3,484.8,510.8,485.3,509.3z"/>
	<path fill="#231F20" d="M485.2,509.4c2.9-11.2,13-19.4,25-19.4c1.2,0,2.3,0.1,3.4,0.3L401.7,382.1l-24.5,24.5l104.2,104.1
		L445.5,523l14,32.1l43.4-14.5c-10.7-3.1-18.5-13-18.5-24.7c0-0.6,0-1.3,0.1-2C484.6,512.3,484.8,510.8,485.2,509.4z M692.3,477.4
		L680,443l-153.9,52.4c5,3.9,8.5,9.6,9.6,16.1c0.2,1.4,0.3,2.8,0.3,4.3c0,5.8-1.9,11.1-5.1,15.4c-4.3,5.9-11.1,9.8-18.8,10.4
		l31.3,31.2l26.7-28L549.6,525L692.3,477.4z"/>
	<g>
		<g>
			<path fill="#B20209" d="M401.1,519h-60.7c-3.9,0-7-3.1-7-7l0,0c0-3.9,3.1-7,7-7h60.7c3.9,0,7,3.1,7,7l0,0
				C408.1,515.9,405,519,401.1,519z"/>
		</g>
		<g>
			<path fill="#B20209" d="M505.4,401.2v-60.7c0-3.9,3.1-7,7-7l0,0c3.9,0,7,3.1,7,7v60.7c0,3.9-3.1,7-7,7l0,0
				C508.6,408.2,505.4,405,505.4,401.2z"/>
		</g>
		<g>
			<path fill="#B20209" d="M505.4,685.9v-60.7c0-3.9,3.1-7,7-7l0,0c3.9,0,7,3.1,7,7v60.7c0,3.9-3.1,7-7,7l0,0
				C508.6,692.9,505.4,689.7,505.4,685.9z"/>
		</g>
		<g>
			<path fill="#B20209" d="M628.8,506.3h60.7c3.9,0,7,3.1,7,7v0c0,3.9-3.1,7-7,7h-60.7c-3.9,0-7-3.1-7-7v0
				C621.8,509.5,625,506.3,628.8,506.3z"/>
		</g>
	</g>
	<path fill="#231F20" d="M445.5,523"/>
	<path fill="#B20209" d="M513.7,490.3c-1.1-0.2-2.2-0.3-3.4-0.3c-12,0-22.1,8.2-25,19.4c-0.4,1.5-0.6,2.9-0.8,4.5l-3.1-3.2
		L377.2,406.6l24.5-24.5L513.7,490.3z"/>
	<path fill="#B20209" d="M570.2,544.8l-26.7,28l-31.3-31.2c7.7-0.6,14.4-4.5,18.8-10.4c3.2-4.3,5.1-9.6,5.1-15.4
		c0-1.5-0.1-2.9-0.3-4.3l13.9,13.4L570.2,544.8z"/>
	<path fill="#B20209" d="M502.9,540.5L459.5,555l-14-32.1l35.9-12.3l3.9-1.3c-0.4,1.5-0.6,2.9-0.8,4.5c-0.1,0.6-0.1,1.3-0.1,2
		C484.4,527.6,492.2,537.4,502.9,540.5z"/>
	<path fill="#B20209" d="M692.3,477.4L549.7,525l-18.7,6.2c3.2-4.3,5.1-9.6,5.1-15.4c0-1.5-0.1-2.9-0.3-4.3
		c-1.1-6.5-4.6-12.2-9.6-16.1L680,443L692.3,477.4z"/>
	<path fill="#0399FF" d="M666.9,247.2H358c-59.9,0-108.5,48.6-108.5,108.5v310.7C249.5,726.4,298,775,358,775h308.9
		c60,0,108.5-48.6,108.5-108.5V355.7C775.4,295.8,726.9,247.2,666.9,247.2z M711.5,674.8c0,22-17.9,39.8-39.8,39.8H352.3
		c-22,0-39.8-17.9-39.8-39.8v-323c0-22,17.9-39.8,39.8-39.8h319.4c22,0,39.8,17.8,39.8,39.8V674.8z"/>
</g>
</svg>
