<?xml version="1.0" encoding="utf-8"?>
<!-- Generator: Adobe Illustrator 18.0.0, SVG Export Plug-In . SVG Version: 6.00 Build 0)  -->
<!DOCTYPE svg PUBLIC "-//W3C//DTD SVG 1.1//EN" "http://www.w3.org/Graphics/SVG/1.1/DTD/svg11.dtd">
<svg version="1.1" id="Layer_1" xmlns="http://www.w3.org/2000/svg" xmlns:xlink="http://www.w3.org/1999/xlink" x="0px" y="0px"
	 viewBox="0 0 1024 1024" enable-background="new 0 0 1024 1024" xml:space="preserve">
<rect stroke="#231F20" stroke-miterlimit="10" width="1024" height="1024"/>
<g>
	<path fill="#AE0000" d="M804.2,489.4c0,130.6-105.8,236.4-236.4,236.4c-5.5,0-10.9-0.2-16.3-0.5c112.4-8,201-101.7,201-216.1
		c0-119.6-97-216.6-216.6-216.6c-79.2,0-148.5,42.5-186.3,106C385.2,313,469.5,253,567.8,253C698.4,253,804.2,358.8,804.2,489.4z"/>
	<path fill="#C5942F" d="M554,188.1c-168.8,0-305.6,137.2-305.6,306.4C248.4,663.7,385.2,801,554,801s305.6-137.2,305.6-306.4
		C859.6,325.3,722.8,188.1,554,188.1z M562.4,745.1C421.9,745.1,308,631.2,308,490.6c0-140.5,113.9-254.4,254.4-254.4
		c140.5,0,254.4,113.9,254.4,254.4C816.8,631.2,702.9,745.1,562.4,745.1z"/>
	<path fill="#C5942F" d="M554,188.1c-168.8,0-305.6,137.2-305.6,306.4C248.4,663.7,385.2,801,554,801s305.6-137.2,305.6-306.4
		C859.6,325.3,722.8,188.1,554,188.1z M562.4,745.1C421.9,745.1,308,631.2,308,490.6c0-140.5,113.9-254.4,254.4-254.4
		c140.5,0,254.4,113.9,254.4,254.4C816.8,631.2,702.9,745.1,562.4,745.1z"/>
	<path fill="#C5942F" d="M554,188.1c-168.8,0-305.6,137.2-305.6,306.4C248.4,663.7,385.2,801,554,801s305.6-137.2,305.6-306.4
		C859.6,325.3,722.8,188.1,554,188.1z M562.4,745.1C421.9,745.1,308,631.2,308,490.6c0-140.5,113.9-254.4,254.4-254.4
		c140.5,0,254.4,113.9,254.4,254.4C816.8,631.2,702.9,745.1,562.4,745.1z"/>
	<path fill="#0399FF" d="M859.3,614.2c-43.9,146.2-179.5,252.7-340,252.7c-196,0-354.9-158.9-354.9-354.9
		c0-196,158.9-354.9,354.9-354.9c84.2,0,161.4,29.3,222.3,78.3c-34.9-24.7-75.4-42.9-119.9-52.6c-176.7-38.6-351,71.8-389.1,246.7
		C194.3,604.3,306.6,777.3,483.4,816C644.4,851.1,803.4,762.6,859.3,614.2z"/>
	<path fill="#FFFFFF" d="M554,188.1c-168.8,0-305.6,137.2-305.6,306.4C248.4,663.7,385.2,801,554,801s305.6-137.2,305.6-306.4
		C859.6,325.3,722.8,188.1,554,188.1z M562.4,745.1C421.9,745.1,308,631.2,308,490.6c0-140.5,113.9-254.4,254.4-254.4
		c140.5,0,254.4,113.9,254.4,254.4C816.8,631.2,702.9,745.1,562.4,745.1z"/>
	<path fill="#FFFFFF" d="M597.5,482.2l-88.4,205l64.3-214.9c5.2,6.1,13.1,10,21.9,10C596,482.3,596.8,482.2,597.5,482.2z"/>
	<path fill="#FFFFFF" d="M566.1,453.1c0,0.3,0,0.5,0,0.8L424,376.6l150.8,55.8C569.4,437.7,566.1,445.1,566.1,453.1z"/>
	<path fill="#FFFFFF" d="M613.8,453.1c0,10.2-8.3,18.5-18.5,18.5c-10.2,0-18.5-8.3-18.5-18.5c0-10.3,8.3-18.5,18.5-18.5
		C605.6,434.6,613.8,442.9,613.8,453.1z"/>
</g>
</svg>
