<?xml version="1.0" encoding="utf-8"?>
<!-- Generator: Adobe Illustrator 18.0.0, SVG Export Plug-In . SVG Version: 6.00 Build 0)  -->
<!DOCTYPE svg PUBLIC "-//W3C//DTD SVG 1.1//EN" "http://www.w3.org/Graphics/SVG/1.1/DTD/svg11.dtd">
<svg version="1.1" id="Layer_1" xmlns="http://www.w3.org/2000/svg" xmlns:xlink="http://www.w3.org/1999/xlink" x="0px" y="0px"
	 viewBox="0 0 1024 1024" enable-background="new 0 0 1024 1024" xml:space="preserve">
<rect stroke="#231F20" stroke-miterlimit="10" width="1024" height="1024"/>
<g>
	<path fill="#AE0000" d="M276.1,491.7c-1,8.9-1.5,17.9-1.5,27c0,11.4,0.8,22.5,2.3,33.5c-20.9-3.2-39.9-12.4-55.2-25.8
		c-22.9-20-37.4-49.5-37.4-82.3c0-60,48.3-108.7,108.1-109.4c0.5,0,0.9,0,1.3,0c18.2,0,35.4,4.4,50.5,12.4
		c-20.4,21.1-37.1,45.8-49,73.1C285.4,442.4,278.8,466.5,276.1,491.7z"/>
	<path fill="#0399FF" d="M305.2,637.6c-6.4,1.8-13.2,2.8-20.2,2.8c-4.1,0-8-0.3-11.9-0.9c-35.6-5.7-62.8-36.5-62.8-73.7
		c0-14.5,4.1-28,11.3-39.4c11.7-18.8,31.4-31.9,54.4-34.7c-1,8.9-1.5,17.9-1.5,27c0,11.4,0.8,22.5,2.3,33.5
		c3,21.8,8.8,42.8,17.1,62.4C297.3,622.5,301,630.2,305.2,637.6z"/>
	<path fill="#AE0000" d="M822.4,518.7c0,18.9-9.9,35.5-24.7,44.8c-8.2,5.2-17.9,8.2-28.2,8.2c-2.1,0-4.2-0.1-6.3-0.4
		c1.3-5.8,2.3-11.7,3.2-17.6c1.6-11.4,2.5-23.1,2.5-34.9c0-10.3-0.7-20.6-1.9-30.6c-0.9-7.4-2.2-14.8-3.8-22
		c2.1-0.3,4.1-0.4,6.3-0.4c8.2,0,15.9,1.8,22.8,5.1C810,479.4,822.4,497.6,822.4,518.7z"/>
	<path fill="#0399FF" d="M452.7,281.4c-26.4,7.6-50.9,19.6-72.9,35c-12.8,9-24.8,19.2-35.7,30.5c-20.4,21.1-37.1,45.8-49,73.1
		c-6.5-14-10.1-29.6-10.1-46c0-13.9,2.6-27.1,7.3-39.4c13.7-35.7,45.8-62.4,84.6-68.7c5.7-0.9,11.5-1.4,17.5-1.4
		C415.9,264.6,435.9,270.7,452.7,281.4z"/>
	<path fill="#AE0000" d="M718.5,316.3c0,15.1-3,29.5-8.6,42.6c-17.6-20.7-38.6-38.5-62.1-52.5c-16.7-10-34.8-18.1-53.8-23.9
		c-22.9-7.1-47.2-10.8-72.4-10.8c-4.2,0-8.4,0.1-12.6,0.3c11.5-26,32.8-46.6,59.3-57.2c12.6-5,26.3-7.8,40.7-7.8
		c47.9,0,88.7,30.8,103.5,73.8C716.4,291.8,718.5,303.8,718.5,316.3z"/>
	<path fill="#0399FF" d="M839.7,635c0,45.2-36.6,81.8-81.8,81.8c-7.5,0-14.7-1-21.6-2.9c-14.7-4-27.7-12-37.9-22.8
		c13.5-13.7,25.3-29.1,35.3-45.7v0c13.6-22.7,23.7-47.6,29.5-74.2c1.3-5.8,2.3-11.7,3.2-17.6c11.3,1.1,21.9,4.6,31.3,9.9
		C822.7,577.4,839.7,604.2,839.7,635z"/>
	<path fill="#0399FF" d="M620.8,754.6c0,13.2-2.7,25.7-7.6,37.1c-14.4,33.2-47.4,56.5-85.9,56.5c-42.9,0-79.1-28.9-90.1-68.2
		c-2.3-8-3.5-16.6-3.5-25.4c0-1.7,0-3.4,0.1-5c7.7,3,15.6,5.5,23.7,7.7c20.4,5.5,42,8.5,64.1,8.5c11.7,0,23.2-0.8,34.4-2.4
		c22.5-3.2,44.1-9.4,64.3-18.2C620.7,748.3,620.8,751.4,620.8,754.6z"/>
	<path fill="#0399FF" d="M594.1,282.4c-22.9-7.1-47.2-10.8-72.4-10.8c-4.2,0-8.4,0.1-12.6,0.3c-19.5,1-38.3,4.2-56.3,9.5
		c-26.4,7.6-50.9,19.6-72.9,35c-3-9.9-4.6-20.4-4.6-31.2c0-6.6,0.6-13.1,1.7-19.3c9.1-51.3,53.8-90.2,107.7-90.2
		c33.6,0,63.6,15.1,83.6,38.9C583.9,233.1,593.5,256.7,594.1,282.4z"/>
	<path fill="#0399FF" d="M828,389.9c0,32.1-13.8,60.9-35.8,80.9c-7.6,6.9-16,12.7-25.3,17.3c-0.9-7.4-2.2-14.8-3.8-22
		c-8.7-40.3-27.3-76.8-53.1-107.2v0c-17.6-20.7-38.6-38.5-62.1-52.5c17.6-14.9,40.1-24.4,64.7-25.7c2-0.1,4-0.2,6-0.2
		C779,280.5,828,329.5,828,389.9z"/>
	<path fill="#AE0000" d="M740.6,683.8c0,10.5-1.5,20.6-4.3,30.2c-13.1,45.8-55.2,79.3-105.2,79.3c-6.1,0-12.1-0.5-17.9-1.5
		c-21.9-3.6-41.7-13.7-57.1-28.3c22.5-3.2,44.1-9.4,64.3-18.2c29.4-12.8,55.9-31.3,78-54c13.5-13.7,25.3-29.1,35.3-45.7
		C738.1,657.4,740.6,670.3,740.6,683.8z"/>
	<path fill="#AE0000" d="M457.5,757.3c-5.7,8.5-12.6,16.1-20.4,22.7c-19,16.1-43.6,25.8-70.5,25.8c-60.5,0-109.5-49-109.5-109.5
		c0-20.8,5.8-40.3,16-56.9c5.7-9.3,12.7-17.7,20.8-24.9c3.3,7.9,7.1,15.6,11.2,23c28.1,51,73.7,91,128.6,112
		C441.5,752.6,449.4,755.2,457.5,757.3z"/>
	<g>
		<circle fill="#FFFFFF" cx="521.7" cy="518.7" r="29.9"/>
		<g>
			<path fill="#FFFFFF" d="M521.7,496.6L521.7,496.6c-4.5,0-8.2-3.7-8.2-8.2V342.8c0-4.5,3.7-8.2,8.2-8.2h0c4.5,0,8.2,3.7,8.2,8.2
				v145.6C529.9,492.9,526.2,496.6,521.7,496.6z"/>
		</g>
		<g>
			<path fill="#FFFFFF" d="M495.7,526.9H374.8c-4.5,0-8.2-3.7-8.2-8.2v0c0-4.5,3.7-8.2,8.2-8.2h120.9c4.5,0,8.2,3.7,8.2,8.2v0
				C503.9,523.2,500.2,526.9,495.7,526.9z"/>
		</g>
		<g>
			<path fill="#FFFFFF" d="M645.9,649.7L535.2,539c-1.6-1.6-1.6-4.2,0-5.8l0,0c1.6-1.6,4.2-1.6,5.8,0l110.7,110.7
				c1.6,1.6,1.6,4.2,0,5.8l0,0C650.1,651.3,647.5,651.3,645.9,649.7z"/>
		</g>
	</g>
	<g>
		<path fill="#FFFFFF" d="M521.7,775.7c-141.7,0-257-115.3-257-257s115.3-257,257-257c141.7,0,257,115.3,257,257
			S663.4,775.7,521.7,775.7z M521.7,290.4c-125.9,0-228.3,102.4-228.3,228.3S395.8,747,521.7,747s228.3-102.4,228.3-228.3
			S647.5,290.4,521.7,290.4z"/>
	</g>
</g>
</svg>
